<svg width="26" height="24" viewBox="0 0 26 24" fill="none" xmlns="http://www.w3.org/2000/svg">
<path fill-rule="evenodd" clip-rule="evenodd" d="M22.8566 0C22.4269 0 22.0075 0.126852 21.6509 0.3657L15.8454 4.23412C14.3887 5.2056 13.0565 6.35201 11.8787 7.64769C14.2979 8.7849 16.2442 10.7311 17.3814 13.1503C18.6771 11.9722 19.8235 10.6396 20.7949 9.18249L24.6645 3.37815C24.8824 3.05086 25.0074 2.6706 25.0263 2.27787C25.0451 1.88514 24.9571 1.49464 24.7716 1.14799C24.586 0.801326 24.31 0.51148 23.9727 0.309321C23.6355 0.107161 23.2498 0.00025883 22.8566 0ZM13.3712 16.0279C14.1204 15.6119 14.844 15.1512 15.538 14.6486C15.0768 13.4819 14.3811 12.4222 13.494 11.5351C12.6068 10.648 11.5472 9.9523 10.3805 9.49105C9.87783 10.1847 9.41722 10.9079 9.00113 11.6567L8.68342 12.2281C9.66183 12.5096 10.5527 13.035 11.2725 13.755C11.9923 14.475 12.5175 15.366 12.7987 16.3445L13.3724 16.0268L13.3712 16.0279ZM7.02978 13.7137C5.89318 13.7137 4.80314 14.1652 3.99944 14.9689C3.19575 15.7726 2.74423 16.8627 2.74423 17.9993C2.7443 18.2342 2.69609 18.4665 2.60261 18.682C2.50913 18.8975 2.37236 19.0914 2.2008 19.2519C2.02924 19.4123 1.82654 19.5357 1.60529 19.6145C1.38403 19.6934 1.14894 19.7259 0.914594 19.7101C0.759644 19.6996 0.604776 19.7315 0.466538 19.8023C0.3283 19.8731 0.211887 19.9801 0.129737 20.1119C0.0475867 20.2436 0.00278747 20.3953 0.000125918 20.5506C-0.00253563 20.7058 0.0370405 20.8589 0.114626 20.9934C0.773903 22.1387 1.79286 23.0343 3.01329 23.5412C4.23373 24.048 5.58735 24.1377 6.86401 23.7964C8.14067 23.4551 9.26893 22.7019 10.0736 21.6536C10.8783 20.6054 11.3144 19.3208 11.3142 17.9993C11.3142 17.4365 11.2033 16.8792 10.988 16.3593C10.7726 15.8393 10.4569 15.3669 10.059 14.9689C9.66102 14.571 9.18859 14.2553 8.66864 14.04C8.14869 13.8246 7.59256 13.7137 7.02978 13.7137Z" fill="black"/>
</svg>
