<svg width="11" height="11" viewBox="0 0 11 11" fill="none" xmlns="http://www.w3.org/2000/svg">
<path d="M0 4.06389V2.76528L2.76528 0H4.06389L0 4.06389ZM0 1.06944V0H1.06944L0 1.06944ZM8.05139 2.09306C7.94954 1.98102 7.84015 1.87143 7.72322 1.76428C7.60589 1.65754 7.48611 1.56343 7.36389 1.48194L8.84583 0H10.1444L8.05139 2.09306ZM1.52778 7.31806L2.70417 6.14167C2.77546 6.2537 2.84941 6.35556 2.926 6.44722C3.00219 6.53889 3.08611 6.62546 3.17778 6.70694C2.89259 6.77824 2.60476 6.86726 2.31428 6.974C2.0242 7.08115 1.76204 7.19583 1.52778 7.31806ZM8.86111 4.30833V4.27778C8.86111 4.08426 8.84583 3.89583 8.81528 3.7125C8.78472 3.52917 8.73889 3.35093 8.67778 3.17778L11 0.855556V2.16944L8.86111 4.30833ZM4.82778 0.977778L5.82083 0H7.11944L6.14167 0.977778C6.02963 0.957407 5.92268 0.94213 5.82083 0.931944C5.71898 0.921759 5.61204 0.916667 5.5 0.916667C5.38796 0.916667 5.27593 0.921759 5.16389 0.931944C5.05185 0.94213 4.93981 0.957407 4.82778 0.977778ZM0 7.10417V5.80556L2.2 3.60556C2.17963 3.71759 2.16435 3.82963 2.15417 3.94167C2.14398 4.0537 2.13889 4.16574 2.13889 4.27778C2.13889 4.38981 2.14398 4.49676 2.15417 4.59861C2.16435 4.70046 2.17963 4.80231 2.2 4.90417L0 7.10417ZM10.8319 8.37222C10.7505 8.25 10.6564 8.13287 10.5496 8.02083C10.4425 7.9088 10.3278 7.80694 10.2056 7.71528L11 6.92083V8.21945L10.8319 8.37222ZM9.05972 7.11944C8.98843 7.08889 8.91713 7.06078 8.84583 7.03511C8.77454 7.00985 8.70324 6.98704 8.63194 6.96667C8.54028 6.93611 8.45126 6.90556 8.36489 6.875C8.27811 6.84444 8.18889 6.81898 8.09722 6.79861L11 3.88056V5.19444L9.05972 7.11944ZM5.5 6.72222C4.82778 6.72222 4.25232 6.48287 3.77361 6.00417C3.29491 5.52546 3.05556 4.95 3.05556 4.27778C3.05556 3.60556 3.29491 3.03009 3.77361 2.55139C4.25232 2.07269 4.82778 1.83333 5.5 1.83333C6.17222 1.83333 6.74768 2.07269 7.22639 2.55139C7.70509 3.03009 7.94444 3.60556 7.94444 4.27778C7.94444 4.95 7.70509 5.52546 7.22639 6.00417C6.74768 6.48287 6.17222 6.72222 5.5 6.72222ZM0.611111 11V9.91528C0.611111 9.56898 0.697685 9.24815 0.870833 8.95278C1.04398 8.65741 1.28333 8.43333 1.58889 8.28055C2.10833 8.01574 2.69663 7.79167 3.35378 7.60833C4.01052 7.425 4.72593 7.33333 5.5 7.33333C6.27407 7.33333 6.98948 7.425 7.64622 7.60833C8.30337 7.79167 8.89167 8.01574 9.41111 8.28055C9.71667 8.43333 9.95602 8.65741 10.1292 8.95278C10.3023 9.24815 10.3889 9.56898 10.3889 9.91528V11H0.611111Z" fill="#0FA958"/>
</svg>
