<svg width="26" height="25" viewBox="0 0 26 25" fill="none" xmlns="http://www.w3.org/2000/svg">
<path d="M1.64641 14.146H20.0369L12.0024 22.1805C11.3603 22.8226 11.3603 23.8763 12.0024 24.5184C12.6445 25.1605 13.6817 25.1605 14.3238 24.5184L25.1737 13.6686C25.3263 13.5162 25.4474 13.3353 25.53 13.1361C25.6126 12.937 25.6551 12.7235 25.6551 12.5078C25.6551 12.2922 25.6126 12.0787 25.53 11.8795C25.4474 11.6804 25.3263 11.4994 25.1737 11.3471L14.3403 0.480786C14.1878 0.328358 14.0069 0.207445 13.8077 0.124952C13.6086 0.0424584 13.3951 3.21218e-09 13.1795 0C12.964 -3.21218e-09 12.7505 0.0424584 12.5514 0.124952C12.3522 0.207445 12.1712 0.328358 12.0188 0.480786C11.8664 0.633214 11.7455 0.814173 11.663 1.01333C11.5805 1.21249 11.538 1.42594 11.538 1.64151C11.538 1.85707 11.5805 2.07053 11.663 2.26969C11.7455 2.46884 11.8664 2.6498 12.0188 2.80223L20.0369 10.8532H1.64641C0.740886 10.8532 0 11.5941 0 12.4996C0 13.4051 0.740886 14.146 1.64641 14.146Z" fill="#383838"/>
</svg>
