<svg width="13" height="10" viewBox="0 0 13 10" fill="none" xmlns="http://www.w3.org/2000/svg">
<path d="M6.5 8.05556C7.3125 8.05556 8.00323 7.81259 8.5722 7.32667C9.14073 6.84037 9.425 6.25 9.425 5.55556C9.425 4.86111 9.14073 4.27074 8.5722 3.78444C8.00323 3.29852 7.3125 3.05556 6.5 3.05556C5.6875 3.05556 4.99677 3.29852 4.4278 3.78444C3.85927 4.27074 3.575 4.86111 3.575 5.55556C3.575 6.25 3.85927 6.84037 4.4278 7.32667C4.99677 7.81259 5.6875 8.05556 6.5 8.05556ZM5.785 4.94444L6.2075 4.16667C6.26167 4.05556 6.35917 4 6.5 4C6.64083 4 6.73833 4.05556 6.7925 4.16667L7.215 4.94444L8.125 5.30556C8.255 5.35185 8.32 5.43519 8.32 5.55556C8.32 5.67593 8.255 5.75926 8.125 5.80556L7.215 6.16667L6.7925 6.94444C6.73833 7.05556 6.64083 7.11111 6.5 7.11111C6.35917 7.11111 6.26167 7.05556 6.2075 6.94444L5.785 6.16667L4.875 5.80556C4.745 5.75926 4.68 5.67593 4.68 5.55556C4.68 5.43519 4.745 5.35185 4.875 5.30556L5.785 4.94444ZM1.3 10C0.9425 10 0.636567 9.8913 0.3822 9.67389C0.1274 9.45611 0 9.19444 0 8.88889V2.22222C0 1.91667 0.1274 1.65519 0.3822 1.43778C0.636567 1.22 0.9425 1.11111 1.3 1.11111H3.3475L4.16 0.361111C4.27917 0.240741 4.4226 0.15037 4.5903 0.09C4.75843 0.03 4.93458 0 5.11875 0H7.88125C8.06542 0 8.24157 0.03 8.4097 0.09C8.5774 0.15037 8.72083 0.240741 8.84 0.361111L9.6525 1.11111H11.7C12.0575 1.11111 12.3636 1.22 12.6184 1.43778C12.8728 1.65519 13 1.91667 13 2.22222V8.88889C13 9.19444 12.8728 9.45611 12.6184 9.67389C12.3636 9.8913 12.0575 10 11.7 10H1.3Z" fill="#0FA958"/>
</svg>
