<svg width="35" height="35" viewBox="0 0 35 35" fill="none" xmlns="http://www.w3.org/2000/svg">
<path d="M23.975 21.35C24.2958 21.4958 24.6243 21.5104 24.9603 21.3938C25.2951 21.2771 25.5208 21.0583 25.6375 20.7375C25.8708 20.2125 26.0312 19.6805 26.1187 19.1415C26.2062 18.6013 26.25 18.0542 26.25 17.5C26.25 16.3917 26.0388 15.2903 25.6165 14.196C25.193 13.1028 24.5583 12.1333 23.7125 11.2875C22.8667 10.4417 21.9118 9.81458 20.8477 9.40625C19.7826 8.99792 18.6958 8.79375 17.5875 8.79375L18.375 8.00625C18.6375 7.74375 18.7618 7.4375 18.7478 7.0875C18.7326 6.7375 18.5938 6.43125 18.3313 6.16875C18.0688 5.90625 17.7625 5.775 17.4125 5.775C17.0625 5.775 16.7563 5.90625 16.4937 6.16875L13.0375 9.58125C12.8625 9.75625 12.775 9.96042 12.775 10.1937C12.775 10.4271 12.8625 10.6313 13.0375 10.8063L16.4937 14.2188C16.7563 14.4521 17.0625 14.5757 17.4125 14.5898C17.7625 14.6049 18.0688 14.4812 18.3313 14.2188C18.5938 13.9563 18.725 13.65 18.725 13.3C18.725 12.95 18.5938 12.6437 18.3313 12.3812L17.325 11.375C18.1125 11.375 18.9146 11.5278 19.7312 11.8335C20.5479 12.1403 21.2479 12.5854 21.8313 13.1687C22.4146 13.7521 22.8597 14.4229 23.1665 15.1813C23.4722 15.9396 23.625 16.6979 23.625 17.4563C23.625 17.8063 23.6034 18.1562 23.5603 18.5063C23.5159 18.8562 23.4208 19.1917 23.275 19.5125C23.1292 19.9208 23.1222 20.2924 23.254 20.6272C23.3847 20.9632 23.625 21.2042 23.975 21.35ZM16.6687 28.8313C16.9312 29.0938 17.2375 29.225 17.5875 29.225C17.9375 29.225 18.2437 29.0938 18.5063 28.8313L21.9625 25.4187C22.1375 25.2437 22.225 25.0396 22.225 24.8062C22.225 24.5729 22.1375 24.3687 21.9625 24.1938L18.5063 20.7812C18.2437 20.5479 17.9375 20.4237 17.5875 20.4085C17.2375 20.3945 16.9312 20.5187 16.6687 20.7812C16.4062 21.0438 16.275 21.35 16.275 21.7C16.275 22.05 16.4062 22.3563 16.6687 22.6187L17.6313 23.5813C16.8146 23.6104 16.0201 23.4792 15.2478 23.1875C14.4743 22.8958 13.7812 22.4438 13.1687 21.8313C12.5854 21.2479 12.1403 20.5771 11.8335 19.8188C11.5278 19.0604 11.375 18.3021 11.375 17.5437C11.375 17.1646 11.3972 16.807 11.4415 16.471C11.4847 16.1362 11.5792 15.7937 11.725 15.4437C11.8417 15.1229 11.8563 14.8091 11.7688 14.5022C11.6813 14.1966 11.5063 13.9563 11.2438 13.7812C10.8938 13.5479 10.5216 13.4896 10.1273 13.6062C9.73408 13.7229 9.46458 13.9563 9.31875 14.3063C9.08542 14.8313 8.932 15.3487 8.8585 15.8585C8.78617 16.3695 8.75 16.9167 8.75 17.5C8.75 18.6083 8.96875 19.7021 9.40625 20.7812C9.84375 21.8604 10.4854 22.8229 11.3313 23.6687C12.1771 24.5146 13.125 25.1493 14.175 25.5728C15.225 25.9951 16.3042 26.2208 17.4125 26.25L16.6687 26.9937C16.4062 27.2562 16.275 27.5625 16.275 27.9125C16.275 28.2625 16.4062 28.5688 16.6687 28.8313ZM17.5 35C15.0792 35 12.8042 34.5403 10.675 33.621C8.54583 32.7028 6.69375 31.4563 5.11875 29.8813C3.54375 28.3063 2.29717 26.4542 1.379 24.325C0.459667 22.1958 0 19.9208 0 17.5C0 15.0792 0.459667 12.8042 1.379 10.675C2.29717 8.54583 3.54375 6.69375 5.11875 5.11875C6.69375 3.54375 8.54583 2.29658 10.675 1.37725C12.8042 0.459083 15.0792 0 17.5 0C19.9208 0 22.1958 0.459083 24.325 1.37725C26.4542 2.29658 28.3063 3.54375 29.8813 5.11875C31.4563 6.69375 32.7028 8.54583 33.621 10.675C34.5403 12.8042 35 15.0792 35 17.5C35 19.9208 34.5403 22.1958 33.621 24.325C32.7028 26.4542 31.4563 28.3063 29.8813 29.8813C28.3063 31.4563 26.4542 32.7028 24.325 33.621C22.1958 34.5403 19.9208 35 17.5 35Z" fill="#383838"/>
</svg>
