<svg width="15" height="15" viewBox="0 0 15 15" fill="none" xmlns="http://www.w3.org/2000/svg">
<path d="M3.75 13.75C3.40625 13.75 3.11208 13.6277 2.8675 13.3831C2.6225 13.1381 2.5 12.8438 2.5 12.5V2.5C2.5 2.15625 2.6225 1.86187 2.8675 1.61687C3.11208 1.37229 3.40625 1.25 3.75 1.25H8.23438C8.40104 1.25 8.56 1.28125 8.71125 1.34375C8.86208 1.40625 8.99479 1.49479 9.10938 1.60938L12.1406 4.64062C12.2552 4.75521 12.3438 4.88792 12.4062 5.03875C12.4688 5.19 12.5 5.34896 12.5 5.51562V12.5C12.5 12.8438 12.3777 13.1381 12.1331 13.3831C11.8881 13.6277 11.5938 13.75 11.25 13.75H3.75ZM8.125 5V2.5H3.75V12.5H11.25V5.625H8.75C8.57292 5.625 8.42458 5.565 8.305 5.445C8.185 5.32542 8.125 5.17708 8.125 5Z" fill="#0FA958"/>
</svg>
