<svg width="37" height="37" viewBox="0 0 37 37" fill="none" xmlns="http://www.w3.org/2000/svg">
<path d="M1 18.5C1 20.7981 1.45265 23.0738 2.33211 25.197C3.21157 27.3202 4.50061 29.2493 6.12563 30.8744C7.75066 32.4994 9.67984 33.7884 11.803 34.6679C13.9262 35.5474 16.2019 36 18.5 36C20.7981 36 23.0738 35.5474 25.197 34.6679C27.3202 33.7884 29.2493 32.4994 30.8744 30.8744C32.4994 29.2493 33.7884 27.3202 34.6679 25.197C35.5474 23.0738 36 20.7981 36 18.5C36 16.2019 35.5474 13.9262 34.6679 11.803C33.7884 9.67984 32.4994 7.75066 30.8744 6.12563C29.2493 4.50061 27.3202 3.21157 25.197 2.33211C23.0738 1.45265 20.7981 1 18.5 1C16.2019 1 13.9262 1.45265 11.803 2.33211C9.67984 3.21157 7.75066 4.50061 6.12563 6.12563C4.50061 7.75066 3.21157 9.67984 2.33211 11.803C1.45265 13.9262 1 16.2019 1 18.5Z" stroke="#383838" stroke-width="2" stroke-linecap="round" stroke-linejoin="round"/>
<path d="M23.9443 12.6667C23.592 12.0556 23.0803 11.5519 22.4637 11.2094C21.8472 10.8669 21.1492 10.6985 20.4443 10.7222H16.5554C15.524 10.7222 14.5348 11.1319 13.8055 11.8612C13.0762 12.5906 12.6665 13.5797 12.6665 14.6111C12.6665 15.6425 13.0762 16.6317 13.8055 17.361C14.5348 18.0903 15.524 18.5 16.5554 18.5H20.4443C21.4757 18.5 22.4648 18.9097 23.1941 19.639C23.9234 20.3683 24.3332 21.3575 24.3332 22.3889C24.3332 23.4203 23.9234 24.4094 23.1941 25.1387C22.4648 25.868 21.4757 26.2778 20.4443 26.2778H16.5554C15.8505 26.3015 15.1525 26.1331 14.5359 25.7906C13.9194 25.4481 13.4076 24.9443 13.0554 24.3333M18.4998 8.77777V28.2222" stroke="#383838" stroke-width="2" stroke-linecap="round" stroke-linejoin="round"/>
</svg>
