<svg width="33" height="33" viewBox="0 0 33 33" fill="none" xmlns="http://www.w3.org/2000/svg">
<path d="M23.1655 1.17389H30.3066C30.7548 1.17389 31.1847 1.35196 31.5017 1.66893V1.66893M23.1655 1.17389L31.5017 1.66893M23.1655 1.17389C22.7172 1.17389 22.2873 1.35196 21.9704 1.66893C21.6534 1.9859 21.4753 2.41581 21.4753 2.86407C21.4753 3.31233 21.6534 3.74224 21.9704 4.05921C22.2873 4.37618 22.7172 4.55425 23.1655 4.55425H26.2267L21.1353 9.64562C18.7288 7.82097 15.7339 6.93389 12.712 7.16126C9.53928 7.39999 6.57964 8.84899 4.44524 11.2086C2.31085 13.5682 1.16497 16.6578 1.24461 19.8385C1.32425 23.0193 2.62332 26.0477 4.87313 28.2975C7.12294 30.5473 10.1514 31.8464 13.3321 31.926C16.5128 32.0057 19.6025 30.8598 21.9621 28.7254C24.3217 26.591 25.7707 23.6314 26.0094 20.4586C26.2367 17.4368 25.3497 14.4418 23.525 12.0354L28.6164 6.94526M23.1655 1.17389L28.6164 6.94526M31.5017 1.66893C31.8187 1.9859 31.9968 2.41581 31.9968 2.86407V10.0052C31.9968 10.4534 31.8187 10.8833 31.5017 11.2003C31.1847 11.5173 30.7548 11.6953 30.3066 11.6953C29.8583 11.6953 29.4284 11.5173 29.1114 11.2003C28.7945 10.8833 28.6164 10.4534 28.6164 10.0052V6.94526M31.5017 1.66893L28.6164 6.94526M20.0206 25.9113C18.7588 27.1723 17.1515 28.031 15.4019 28.3787C13.652 28.7265 11.8383 28.5476 10.1901 27.8647C8.54184 27.1817 7.13312 26.0254 6.14201 24.5419C5.1509 23.0585 4.62191 21.3144 4.62191 19.5303C4.62191 17.7462 5.1509 16.0022 6.14201 14.5187C7.13312 13.0352 8.54184 11.8789 10.1901 11.196C11.8383 10.513 13.652 10.3342 15.4019 10.6819C17.1517 11.0297 18.7591 11.8884 20.0209 13.1496C21.7101 14.8435 22.6586 17.1381 22.6586 19.5303C22.6586 21.9227 21.71 24.2174 20.0206 25.9113Z" fill="#383838" stroke="#383838"/>
</svg>
