<svg width="10" height="11" viewBox="0 0 10 11" fill="none" xmlns="http://www.w3.org/2000/svg">
<path d="M5 0C3.073 0 1.5 1.573 1.5 3.5C1.5 4.705 2.115 5.776 3.047 6.4065C1.2635 7.1715 0 8.94 0 11H1C1 8.785 2.785 7 5 7C7.215 7 9 8.785 9 11H10C10 8.94 8.7365 7.171 6.953 6.406C7.4288 6.08501 7.81863 5.65225 8.08833 5.14562C8.35803 4.63899 8.49938 4.07395 8.5 3.5C8.5 1.573 6.927 0 5 0ZM5 1C6.3865 1 7.5 2.1135 7.5 3.5C7.5 4.8865 6.3865 6 5 6C3.6135 6 2.5 4.8865 2.5 3.5C2.5 2.1135 3.6135 1 5 1Z" fill="#0FA958"/>
</svg>
