<svg width="21" height="31" viewBox="0 0 21 31" fill="none" xmlns="http://www.w3.org/2000/svg">
<path d="M20.8692 11.0892C20.8694 9.09293 20.3009 7.13867 19.2313 5.45914C18.1617 3.77962 16.6361 2.44559 14.8362 1.61593C13.0364 0.786267 11.038 0.495933 9.07924 0.7795C7.12044 1.06307 5.2837 1.90859 3.78775 3.21537C2.2918 4.52215 1.19968 6.23513 0.641449 8.15031C0.083216 10.0655 0.0823925 12.1022 0.639076 14.0178C1.19576 15.9335 2.28649 17.6473 3.78138 18.9553C5.27627 20.2634 7.11233 21.1104 9.0709 21.3956V23.4871H5.62973C5.23859 23.4871 4.86347 23.6438 4.58689 23.9228C4.31032 24.2018 4.15494 24.5803 4.15494 24.9748C4.15494 25.3694 4.31032 25.7478 4.58689 26.0268C4.86347 26.3058 5.23859 26.4626 5.62973 26.4626H9.0709V28.9422C9.0709 29.3367 9.22628 29.7152 9.50285 29.9942C9.77943 30.2732 10.1545 30.4299 10.5457 30.4299C10.9368 30.4299 11.3119 30.2732 11.5885 29.9942C11.8651 29.7152 12.0205 29.3367 12.0205 28.9422V26.4626H15.4616C15.8528 26.4626 16.2279 26.3058 16.5045 26.0268C16.7811 25.7478 16.9364 25.3694 16.9364 24.9748C16.9364 24.5803 16.7811 24.2018 16.5045 23.9228C16.2279 23.6438 15.8528 23.4871 15.4616 23.4871H12.0205V21.3956C14.476 21.0349 16.721 19.7953 18.3456 17.9031C19.9702 16.0109 20.8659 13.5924 20.8692 11.0892ZM3.17174 11.0892C3.17174 9.61794 3.60422 8.17973 4.41448 6.95644C5.22474 5.73314 6.37639 4.7797 7.7238 4.21668C9.07121 3.65366 10.5539 3.50635 11.9843 3.79337C13.4147 4.0804 14.7286 4.78887 15.7599 5.8292C16.7911 6.86952 17.4934 8.19498 17.7779 9.63796C18.0625 11.0809 17.9164 12.5766 17.3583 13.9359C16.8002 15.2951 15.8551 16.4569 14.6424 17.2743C13.4298 18.0917 12.0041 18.5279 10.5457 18.5279C8.5907 18.5256 6.71643 17.7412 5.33404 16.3466C3.95165 14.9521 3.17402 13.0614 3.17174 11.0892Z" fill="#383838"/>
</svg>
