<svg width="35" height="35" viewBox="0 0 35 35" fill="none" xmlns="http://www.w3.org/2000/svg">
<path d="M17.5 0C14.0388 0 10.6554 1.02636 7.77753 2.94928C4.89967 4.87221 2.65665 7.60533 1.33212 10.803C0.00758248 14.0007 -0.338976 17.5194 0.336265 20.9141C1.01151 24.3087 2.67822 27.4269 5.12564 29.8744C7.57306 32.3218 10.6913 33.9885 14.0859 34.6637C17.4806 35.339 20.9993 34.9924 24.197 33.6679C27.3947 32.3433 30.1278 30.1003 32.0507 27.2225C33.9736 24.3446 35 20.9612 35 17.5C34.9942 12.8605 33.1486 8.41266 29.868 5.13202C26.5873 1.85139 22.1395 0.00578854 17.5 0ZM24.2308 18.8461H18.8462V24.2308C18.8462 24.5878 18.7043 24.9302 18.4519 25.1826C18.1994 25.4351 17.857 25.5769 17.5 25.5769C17.143 25.5769 16.8006 25.4351 16.5481 25.1826C16.2957 24.9302 16.1539 24.5878 16.1539 24.2308V18.8461H10.7692C10.4122 18.8461 10.0698 18.7043 9.81736 18.4519C9.56491 18.1994 9.42308 17.857 9.42308 17.5C9.42308 17.143 9.56491 16.8006 9.81736 16.5481C10.0698 16.2957 10.4122 16.1538 10.7692 16.1538H16.1539V10.7692C16.1539 10.4122 16.2957 10.0698 16.5481 9.81735C16.8006 9.5649 17.143 9.42307 17.5 9.42307C17.857 9.42307 18.1994 9.5649 18.4519 9.81735C18.7043 10.0698 18.8462 10.4122 18.8462 10.7692V16.1538H24.2308C24.5878 16.1538 24.9302 16.2957 25.1826 16.5481C25.4351 16.8006 25.5769 17.143 25.5769 17.5C25.5769 17.857 25.4351 18.1994 25.1826 18.4519C24.9302 18.7043 24.5878 18.8461 24.2308 18.8461Z" fill="#383838"/>
</svg>
