<svg width="13" height="12" viewBox="0 0 13 12" fill="none" xmlns="http://www.w3.org/2000/svg">
<path d="M0.770313 10.6737L1.60437 11.0274V5.32421L0.0918665 9.02526C-0.163329 9.66947 0.129212 10.4084 0.770313 10.6737ZM12.9077 8.33684L9.82042 0.789474C9.72923 0.560555 9.57392 0.363775 9.37369 0.223464C9.17346 0.0831525 8.9371 0.00546264 8.69382 0C8.53199 0 8.36394 0.0252632 8.20211 0.0947369L3.61481 2.02105C3.3934 2.11639 3.20359 2.27417 3.0679 2.47568C2.9322 2.67718 2.85631 2.91395 2.84922 3.15789C2.843 3.31579 2.87412 3.49895 2.93014 3.66316L6.04228 11.2105C6.22278 11.7032 6.68338 11.9937 7.16888 12C7.33071 12 7.49254 11.9684 7.64814 11.9053L12.2292 9.97895C12.5337 9.85241 12.7763 9.60835 12.9035 9.30042C13.0307 8.99249 13.0322 8.6459 12.9077 8.33684ZM4.1003 3.78947C3.93523 3.78947 3.77691 3.72293 3.66018 3.60449C3.54345 3.48604 3.47788 3.3254 3.47788 3.15789C3.47788 2.99039 3.54345 2.82975 3.66018 2.7113C3.77691 2.59286 3.93523 2.52632 4.1003 2.52632C4.44264 2.52632 4.72273 2.81053 4.72273 3.15789C4.72273 3.50526 4.44264 3.78947 4.1003 3.78947ZM2.85545 10.7368C2.85545 11.0719 2.9866 11.3931 3.22006 11.63C3.45351 11.8669 3.77015 12 4.1003 12H5.00282L2.85545 6.73263V10.7368Z" fill="#0FA958"/>
</svg>
