<svg width="11" height="11" viewBox="0 0 11 11" fill="none" xmlns="http://www.w3.org/2000/svg">
<path d="M5.5 11C4.77773 11 4.06253 10.8577 3.39524 10.5813C2.72795 10.3049 2.12163 9.89981 1.61091 9.38909C0.579463 8.35764 0 6.95869 0 5.5C0 4.04131 0.579463 2.64236 1.61091 1.61091C2.64236 0.579463 4.04131 0 5.5 0C8.525 0 11 2.2 11 4.95C11 5.82521 10.6523 6.66458 10.0335 7.28345C9.41458 7.90232 8.57521 8.25 7.7 8.25H6.71C6.545 8.25 6.435 8.36 6.435 8.525C6.435 8.58 6.49 8.635 6.49 8.69C6.71 8.965 6.82 9.295 6.82 9.625C6.875 10.395 6.27 11 5.5 11ZM5.5 1.1C4.33305 1.1 3.21389 1.56357 2.38873 2.38873C1.56357 3.21389 1.1 4.33305 1.1 5.5C1.1 6.66695 1.56357 7.78611 2.38873 8.61127C3.21389 9.43643 4.33305 9.9 5.5 9.9C5.665 9.9 5.775 9.79 5.775 9.625C5.775 9.515 5.72 9.46 5.72 9.405C5.5 9.13 5.39 8.855 5.39 8.525C5.39 7.755 5.995 7.15 6.765 7.15H7.7C8.28348 7.15 8.84305 6.91822 9.25563 6.50564C9.66821 6.09306 9.9 5.53348 9.9 4.95C9.9 2.805 7.92 1.1 5.5 1.1ZM2.475 4.4C2.915 4.4 3.3 4.785 3.3 5.225C3.3 5.665 2.915 6.05 2.475 6.05C2.035 6.05 1.65 5.665 1.65 5.225C1.65 4.785 2.035 4.4 2.475 4.4ZM4.125 2.2C4.565 2.2 4.95 2.585 4.95 3.025C4.95 3.465 4.565 3.85 4.125 3.85C3.685 3.85 3.3 3.465 3.3 3.025C3.3 2.585 3.685 2.2 4.125 2.2ZM6.875 2.2C7.315 2.2 7.7 2.585 7.7 3.025C7.7 3.465 7.315 3.85 6.875 3.85C6.435 3.85 6.05 3.465 6.05 3.025C6.05 2.585 6.435 2.2 6.875 2.2ZM8.525 4.4C8.965 4.4 9.35 4.785 9.35 5.225C9.35 5.665 8.965 6.05 8.525 6.05C8.085 6.05 7.7 5.665 7.7 5.225C7.7 4.785 8.085 4.4 8.525 4.4Z" fill="#0FA958"/>
</svg>
